<svg xmlns="http://www.w3.org/2000/svg" width="64" height="64" viewBox="0 0 64 64" fill="none">
  <rect width="64" height="64" rx="12" fill="#1D1E2B"/>
  <!-- News icon elements -->
  <rect x="15" y="16" width="34" height="4" rx="1" fill="#4DABF7"/>
  <rect x="15" y="22" width="34" height="2" rx="1" fill="#868E96"/>
  <rect x="15" y="26" width="28" height="2" rx="1" fill="#868E96"/>
  <rect x="15" y="30" width="34" height="2" rx="1" fill="#868E96"/>
  <rect x="15" y="34" width="20" height="2" rx="1" fill="#868E96"/>
  
  <!-- Secondary news section -->
  <rect x="15" y="40" width="22" height="3" rx="1" fill="#4DABF7"/>
  <rect x="15" y="45" width="18" height="2" rx="1" fill="#868E96"/>
  <rect x="15" y="49" width="14" height="2" rx="1" fill="#868E96"/>
  
  <!-- Telegram-like icon -->
  <circle cx="44" cy="45" r="8" fill="#4DABF7"/>
  <path d="M49 42.5L44 47.5L41 44.5" stroke="white" stroke-width="1.5" stroke-linecap="round" stroke-linejoin="round"/>
  
  <!-- RSS Feed Icon -->
  <circle cx="51" cy="21" r="4" fill="#FF922B"/>
  <path d="M48 21C48 19.8954 48.8954 19 50 19C51.1046 19 52 19.8954 52 21" stroke="white" stroke-width="1" stroke-linecap="round"/>
  <path d="M46 21C46 18.7909 47.7909 17 50 17C52.2091 17 54 18.7909 54 21" stroke="white" stroke-width="1" stroke-linecap="round"/>
</svg>
